<svg width="32" height="32" fill="none" xmlns="http://www.w3.org/2000/svg" style="opacity: 1; transform: none;"><path d="M22.8 6.1H3.5V.3h28.2v25h-5.8V11.671l-.471.329L6.24 25.353l-.785.546H25.3v5.8H6.394a6.094 6.094 0 0 1-3.48-11.1L22.971 6.647l.785-.546H22.8Z" fill="#000"></path><path d="M22.8 6.1H3.5V.3h28.2v25h-5.8V11.671l-.471.329L6.24 25.353l-.785.546H25.3v5.8H6.394a6.094 6.094 0 0 1-3.48-11.1L22.971 6.647l.785-.546H22.8Z" fill="url(#a)" fill-opacity="0.86"></path><path d="M22.8 6.1H3.5V.3h28.2v25h-5.8V11.671l-.471.329L6.24 25.353l-.785.546H25.3v5.8H6.394a6.094 6.094 0 0 1-3.48-11.1L22.971 6.647l.785-.546H22.8Z" stroke="url(#b)" stroke-width="0.6"></path><defs><linearGradient id="a" x1="16" y1="0" x2="16" y2="54" gradientUnits="userSpaceOnUse"><stop stop-color="#fff"></stop><stop offset="1" stop-color="#fff" stop-opacity="0"></stop></linearGradient><linearGradient id="b" x1="16" y1="0" x2="16" y2="32" gradientUnits="userSpaceOnUse"><stop stop-color="#fff"></stop><stop offset="0.339" stop-color="#fff" stop-opacity="0"></stop><stop offset="1" stop-color="#fff" stop-opacity="0"></stop></linearGradient></defs></svg>